<?xml version="1.0" encoding="UTF-8" standalone="no"?>


<svg
   xmlns:dc="http://purl.org/dc/elements/1.1/"
   xmlns:cc="http://creativecommons.org/ns#"
   xmlns:rdf="http://www.w3.org/1999/02/22-rdf-syntax-ns#"
   xmlns:svg="http://www.w3.org/2000/svg"
   xmlns="http://www.w3.org/2000/svg"
   xmlns:sodipodi="http://sodipodi.sourceforge.net/DTD/sodipodi-0.dtd"
   xmlns:inkscape="http://www.inkscape.org/namespaces/inkscape"
   width="107.94626"
   height="49.889439"
   viewBox="0 0 28.560781 13.199913"
   version="1.1"
   id="svg8472"
   inkscape:version="0.92.0 r15299"
   sodipodi:docname="first bank et trust.svg">
  <defs
     id="defs8466">
    <clipPath
       id="clipPath4310"
       clipPathUnits="userSpaceOnUse">
      <path
         inkscape:connector-curvature="0"
         id="path4308"
         d="m 511.533,15.619 h 80.209 v 36.667 h -80.209 z" />
    </clipPath>
    <clipPath
       id="clipPath4306"
       clipPathUnits="userSpaceOnUse">
      <path
         inkscape:connector-curvature="0"
         id="path4304"
         d="m 382.352,14.335 h 351 v 362.783 h -351 z" />
    </clipPath>
  </defs>
  <sodipodi:namedview
     id="base"
     pagecolor="#ffffff"
     bordercolor="#666666"
     borderopacity="1.0"
     inkscape:pageopacity="0.0"
     inkscape:pageshadow="2"
     inkscape:zoom="8.3873897"
     inkscape:cx="53.473132"
     inkscape:cy="24.444727"
     inkscape:document-units="mm"
     inkscape:current-layer="layer1"
     showgrid="false"
     fit-margin-top="0"
     fit-margin-left="0"
     fit-margin-right="0"
     fit-margin-bottom="0"
     units="px"
     inkscape:window-width="1280"
     inkscape:window-height="744"
     inkscape:window-x="-4"
     inkscape:window-y="-4"
     inkscape:window-maximized="1" />
  <metadata
     id="metadata8469">
    <rdf:RDF>
      <cc:Work
         rdf:about="">
        <dc:format>image/svg+xml</dc:format>
        <dc:type
           rdf:resource="http://purl.org/dc/dcmitype/StillImage" />
        <dc:title></dc:title>
      </cc:Work>
    </rdf:RDF>
  </metadata>
  <g
     inkscape:label="Layer 1"
     inkscape:groupmode="layer"
     id="layer1"
     transform="translate(1.6748884,-142.10109)">
    <g
       id="g8697"
       transform="translate(0.13229125,-0.13228874)">
      <path
         inkscape:connector-curvature="0"
         id="path4576"
         style="fill:#00548e;fill-opacity:1;fill-rule:nonzero;stroke:none;stroke-width:0.35277778"
         d="m 0.97558466,144.55821 v 1.44851 H 3.1680985 l 0.3654778,2.17981 H 0.97558466 v 3.18417 H -1.6737764 v -9.005 H 4.016529 v 2.19251 z" />
      <path
         inkscape:connector-curvature="0"
         id="path4580"
         style="fill:#00548e;fill-opacity:1;fill-rule:nonzero;stroke:none;stroke-width:0.35277778"
         d="m 7.9970786,147.57302 h -0.70485 v 1.95756 h 0.7179028 c 0.7309555,0 1.1616972,-0.32632 1.1616972,-0.9659 0,-0.65229 -0.4046361,-0.99166 -1.17475,-0.99166 m 0.013053,-3.36726 h -0.717903 v 1.73602 H 7.970973 c 0.6917973,0 1.0442222,-0.35243 1.0442222,-0.90065 0,-0.50905 -0.3002138,-0.83537 -1.0050638,-0.83537 m 0.1435805,7.16491 H 4.7737481 v -9.005 h 3.4452277 c 2.0880912,0 3.1323142,0.83538 3.1323142,2.33609 0,1.00507 -0.600428,1.60514 -1.305278,1.91841 0.978958,0.32632 1.618544,0.92674 1.618544,2.16676 0,1.70956 -1.331383,2.58374 -3.5108441,2.58374" />
      <path
         inkscape:connector-curvature="0"
         id="path4584"
         style="fill:#00ae9b;fill-opacity:1;fill-rule:nonzero;stroke:none;stroke-width:0.35277778"
         d="m 15.710423,145.85023 c 0.326319,-0.30021 0.378531,-0.84843 0.378531,-1.27882 0,-1.12254 -0.169687,-1.47496 -0.743656,-1.47496 -0.352425,0 -0.613481,0.26105 -0.613481,0.62653 0,0.248 0.104423,0.58738 0.299862,0.9398 z m -1.239661,1.00506 c -0.613481,0.4565 -0.874536,0.63924 -0.874536,1.29188 0,0.53516 0.861483,2.70157 1.774825,2.70157 0.522111,0 0.887589,-0.248 1.018116,-0.4438 z m 2.101144,3.84987 c -0.522111,0.48295 -1.278819,0.83538 -2.088091,0.83538 -1.553281,0 -2.231672,-1.21391 -2.231672,-2.23168 0,-1.33138 1.109133,-2.15335 2.075038,-2.75378 -0.339372,-0.61348 -0.835377,-1.34444 -0.835377,-2.07504 0,-1.00506 0.62618,-1.67075 1.905352,-1.69686 1.344436,-0.0261 2.009775,0.63959 2.009775,1.4097 0,0.92639 -0.86113,1.48766 -1.579033,1.8923 l 1.722967,3.054 c 0.573969,-0.73096 0.782813,-1.68381 0.769761,-2.61021 h -0.769761 v -0.31326 h 1.840088 v 0.31326 h -0.691797 c -0.0261,0.97861 -0.221897,1.98367 -0.952852,2.97568 l 0.861483,1.55293 h 0.783166 v 0.31327 h -2.50578 z" />
      <path
         inkscape:connector-curvature="0"
         id="path4588"
         style="fill:#00548e;fill-opacity:1;fill-rule:nonzero;stroke:none;stroke-width:0.35277778"
         d="m 24.102477,144.58432 v 6.78639 H 21.42701 v -6.78639 h -2.414411 v -2.21862 h 7.243234 l 0.365477,2.21862 z" />
      <path
         inkscape:connector-curvature="0"
         id="path4592"
         style="fill:#00548e;fill-opacity:1;fill-rule:nonzero;stroke:none;stroke-width:0.35277778"
         d="m -1.4886923,153.26265 v 0.85125 h 0.72143054 l 0.0215194,0.13688 H -1.4886923 v 1.01918 h -0.1485194 v -2.14383 h 1.0371666 v 0.13652 z" />
      <path
         d="m -0.13578957,153.12616 h 0.14851944 v 2.14419 h -0.14851944 z"
         style="fill:#00548e;fill-opacity:1;fill-rule:nonzero;stroke:none;stroke-width:0.35277778"
         id="path4596"
         inkscape:connector-curvature="0" />
      <path
         inkscape:connector-curvature="0"
         id="path4598"
         style="fill:#00548e;fill-opacity:1;fill-rule:nonzero;stroke:none;stroke-width:0.35277778"
         d="M 1.1519551,153.25955 H 0.80517455 v 0.91969 H 1.1117384 c 0.3467806,0 0.5665611,-0.17709 0.5665611,-0.46919 0,-0.27976 -0.1795639,-0.4505 -0.5263444,-0.4505 m 0.6963833,2.032 -0.7087305,-0.98178 H 0.80517455 v 0.96026 H 0.65665511 v -2.14418 H 1.1611273 c 0.4180417,0 0.6720417,0.22366 0.6720417,0.57785 0,0.33267 -0.24765,0.53481 -0.5263445,0.58737 l 0.6995584,0.96661 z" />
      <path
         inkscape:connector-curvature="0"
         id="path4602"
         style="fill:#00548e;fill-opacity:1;fill-rule:nonzero;stroke:none;stroke-width:0.35277778"
         d="m 2.8453237,155.29479 c -0.2289528,0 -0.4148667,-0.0589 -0.5450417,-0.12735 l 0.021872,-0.1524 c 0.12065,0.0748 0.3125611,0.14605 0.5323416,0.14605 0.2726972,0 0.4893028,-0.16792 0.4893028,-0.43498 0,-0.22366 -0.123825,-0.35101 -0.4490861,-0.49071 -0.4148667,-0.17745 -0.5602111,-0.32032 -0.5602111,-0.61242 0,-0.30445 0.2568222,-0.52176 0.5820833,-0.52176 0.1979083,0 0.3559528,0.0434 0.4610806,0.10548 l -0.02152,0.14922 c -0.123825,-0.0716 -0.2631722,-0.12135 -0.4459111,-0.12135 -0.2568222,0 -0.4240389,0.1711 -0.4240389,0.38241 0,0.21731 0.12065,0.32314 0.4550834,0.46602 0.3806472,0.16157 0.5573888,0.32632 0.5573888,0.63394 0,0.36336 -0.3005666,0.57785 -0.6533444,0.57785" />
      <path
         inkscape:connector-curvature="0"
         id="path4606"
         style="fill:#00548e;fill-opacity:1;fill-rule:nonzero;stroke:none;stroke-width:0.35277778"
         d="m 4.5820134,153.26265 v 2.00731 H 4.433494 v -2.00731 H 3.7399329 v -0.13652 h 1.5261166 l 0.018697,0.13652 z" />
      <path
         inkscape:connector-curvature="0"
         id="path4610"
         style="fill:#00548e;fill-opacity:1;fill-rule:nonzero;stroke:none;stroke-width:0.35277778"
         d="M 6.8759508,154.21042 H 6.5478675 v 0.92604 H 6.888298 c 0.3436056,0 0.5665611,-0.17709 0.5665611,-0.46002 0,-0.32632 -0.2353028,-0.46602 -0.5789083,-0.46602 m -0.00635,-0.95074 H 6.5478675 v 0.82339 h 0.3249083 c 0.3220861,0 0.4861278,-0.19897 0.4861278,-0.4318 0,-0.24554 -0.1703917,-0.39159 -0.4893028,-0.39159 m 0.00635,2.01048 H 6.399348 v -2.14418 h 0.4766028 c 0.4148667,0 0.6346472,0.20497 0.6346472,0.51894 0,0.23601 -0.1425222,0.4071 -0.3404305,0.48789 0.2659944,0.0713 0.4363861,0.23601 0.4363861,0.52811 0,0.39158 -0.3033889,0.60924 -0.7306028,0.60924" />
      <path
         inkscape:connector-curvature="0"
         id="path4614"
         style="fill:#00548e;fill-opacity:1;fill-rule:nonzero;stroke:none;stroke-width:0.35277778"
         d="m 8.3928952,154.40304 h 0.873125 l -0.4367389,-1.12183 z m 0.3591278,-1.28976 h 0.1608666 l 0.8484306,2.14419 -0.1485195,0.0342 -0.2942166,-0.75495 H 8.3435063 l -0.2850444,0.73307 H 7.9035924 Z" />
      <path
         inkscape:connector-curvature="0"
         id="path4618"
         style="fill:#00548e;fill-opacity:1;fill-rule:nonzero;stroke:none;stroke-width:0.35277778"
         d="m 11.668225,155.27003 -1.309511,-1.91735 v 1.91735 h -0.142522 v -2.14418 h 0.151694 l 1.275645,1.86443 v -1.86443 h 0.142522 v 2.14418 z" />
      <path
         inkscape:connector-curvature="0"
         id="path4622"
         style="fill:#00548e;fill-opacity:1;fill-rule:nonzero;stroke:none;stroke-width:0.35277778"
         d="m 13.717441,155.29165 -1.164167,-1.14335 v 1.12183 h -0.148519 v -2.14418 h 0.148519 v 0.98813 l 1.074209,-0.98813 h 0.201436 l -1.102078,0.9973 1.163814,1.13101 z" />
      <path
         inkscape:connector-curvature="0"
         id="path4626"
         style="fill:#00548e;fill-opacity:1;fill-rule:nonzero;stroke:none;stroke-width:0.35277778"
         d="m 16.101301,154.81939 -0.647347,-0.65546 c -0.293864,0.11465 -0.467078,0.2981 -0.467078,0.54963 0,0.25823 0.210256,0.45402 0.504472,0.45402 0.235303,0 0.448734,-0.10901 0.609953,-0.34819 m 0.464256,0.46919 -0.3683,-0.37288 c -0.182739,0.2547 -0.424392,0.38523 -0.705909,0.38523 -0.399344,0 -0.656519,-0.25153 -0.656519,-0.58102 0,-0.32914 0.21978,-0.52211 0.526344,-0.65264 -0.157691,-0.16757 -0.235303,-0.29492 -0.235303,-0.49072 0,-0.2734 0.210609,-0.48154 0.538692,-0.48154 0.176742,0 0.337608,0.0494 0.486128,0.13653 l -0.03387,0.1524 c -0.161219,-0.10266 -0.316089,-0.15558 -0.458258,-0.15558 -0.238478,0 -0.377825,0.14923 -0.377825,0.33902 0,0.1644 0.06491,0.2794 0.238478,0.4565 l 0.656166,0.66816 c 0.08961,-0.1711 0.158045,-0.39476 0.198261,-0.67451 l 0.145698,0.0314 c -0.05292,0.30445 -0.136525,0.54998 -0.244828,0.74542 l 0.448733,0.45403 z" />
      <path
         inkscape:connector-curvature="0"
         id="path4630"
         style="fill:#00548e;fill-opacity:1;fill-rule:nonzero;stroke:none;stroke-width:0.35277778"
         d="m 18.450978,153.26265 v 2.00731 h -0.148519 v -2.00731 h -0.693562 v -0.13652 h 1.526117 l 0.0187,0.13652 z" />
      <path
         inkscape:connector-curvature="0"
         id="path4634"
         style="fill:#00548e;fill-opacity:1;fill-rule:nonzero;stroke:none;stroke-width:0.35277778"
         d="m 20.051354,153.25955 h -0.346781 v 0.91969 h 0.306564 c 0.346781,0 0.566561,-0.17709 0.566561,-0.46919 0,-0.27976 -0.179563,-0.4505 -0.526344,-0.4505 m 0.696383,2.032 -0.70873,-0.98178 h -0.334434 v 0.96026 h -0.148519 v -2.14418 h 0.504472 c 0.418042,0 0.672042,0.22366 0.672042,0.57785 0,0.33267 -0.24765,0.53481 -0.526345,0.58737 l 0.699559,0.96661 z" />
      <path
         inkscape:connector-curvature="0"
         id="path4638"
         style="fill:#00548e;fill-opacity:1;fill-rule:nonzero;stroke:none;stroke-width:0.35277778"
         d="m 22.014174,155.301 c -0.489303,0 -0.773994,-0.34502 -0.773994,-0.82338 v -1.35149 h 0.148519 v 1.32961 c 0,0.41946 0.219781,0.71156 0.631472,0.71156 0.405695,0 0.631472,-0.27658 0.631472,-0.69603 v -1.34514 h 0.148873 v 1.33596 c 0,0.50024 -0.294217,0.83891 -0.786342,0.83891" />
      <path
         inkscape:connector-curvature="0"
         id="path4642"
         style="fill:#00548e;fill-opacity:1;fill-rule:nonzero;stroke:none;stroke-width:0.35277778"
         d="m 23.815704,155.29479 c -0.228953,0 -0.414867,-0.0589 -0.544689,-0.12735 l 0.02152,-0.1524 c 0.121002,0.0748 0.312913,0.14605 0.532694,0.14605 0.272344,0 0.48895,-0.16792 0.48895,-0.43498 0,-0.22366 -0.123825,-0.35101 -0.448733,-0.49071 -0.414867,-0.17745 -0.560564,-0.32032 -0.560564,-0.61242 0,-0.30445 0.256822,-0.52176 0.582083,-0.52176 0.198261,0 0.355953,0.0434 0.461433,0.10548 l -0.02187,0.14922 c -0.123825,-0.0716 -0.263172,-0.12135 -0.445911,-0.12135 -0.256822,0 -0.424039,0.1711 -0.424039,0.38241 0,0.21731 0.121003,0.32314 0.455084,0.46602 0.381,0.16157 0.557388,0.32632 0.557388,0.63394 0,0.36336 -0.300213,0.57785 -0.653344,0.57785" />
      <path
         inkscape:connector-curvature="0"
         id="path4646"
         style="fill:#00548e;fill-opacity:1;fill-rule:nonzero;stroke:none;stroke-width:0.35277778"
         d="m 25.552641,153.26265 v 2.00731 h -0.148519 v -2.00731 H 24.71056 v -0.13652 h 1.526117 l 0.0187,0.13652 z" />
      <path
         inkscape:connector-curvature="0"
         id="path4650"
         style="fill:#00ae9b;fill-opacity:1;fill-rule:nonzero;stroke:none;stroke-width:0.35277778"
         d="M -1.6748884,152.32698 H 26.282044" />
      <path
         inkscape:connector-curvature="0"
         id="path4658"
         style="fill:none;stroke:#00ae9b;stroke-width:0.19085278;stroke-linecap:butt;stroke-linejoin:miter;stroke-miterlimit:4;stroke-dasharray:none;stroke-opacity:1"
         d="M -1.6748884,152.32698 H 26.282044" />
    </g>
  </g>
</svg>
