<svg data-v-423bf9ae="" xmlns="http://www.w3.org/2000/svg" viewBox="0 0 281.74850086035207 60" class="font"><!----><!----><!----><g data-v-423bf9ae="" id="ce7aac3a-9e9d-41dc-be2b-cead19fec278" fill="white" transform="matrix(4.765686995457814,0,0,4.765686995457814,6.052422851981589,-3.3836367704448236)"><path d="M3.33 7.46Q4.31 7.32 5.14 7.32L5.14 7.32L5.00 4.06Q4.66 4.66 4.05 5.99L4.05 5.99Q3.51 7.13 3.33 7.46L3.33 7.46ZM7.52 12.47Q7.57 12.68 7.41 12.87Q7.24 13.06 6.95 13.18Q6.66 13.30 6.41 13.30L6.41 13.30Q6.01 13.30 5.95 13.05L5.95 13.05Q5.45 11.05 5.21 8.29L5.21 8.29Q3.95 8.27 2.70 8.53L2.70 8.53Q1.39 10.72 0.25 12.57L0.25 12.57Q0.14 12.77-0.22 12.90Q-0.57 13.03-0.88 13.03L-0.88 13.03Q-1.27 13.03-1.27 12.82L-1.27 12.82Q-1.27 12.74-1.22 12.64L-1.22 12.64Q-0.10 10.68 0.85 9.06L0.85 9.06L0.62 9.14Q0.39 9.23 0.21 9.23L0.21 9.23Q0.03 9.23-0.08 9.14Q-0.18 9.06-0.18 8.93L-0.18 8.93Q-0.18 8.79-0.05 8.64Q0.08 8.50 0.34 8.39L0.34 8.39Q0.99 8.09 1.51 7.92L1.51 7.92Q2.27 6.62 3.12 4.97L3.12 4.97Q4.10 3.08 4.77 2.02L4.77 2.02Q4.82 1.96 4.89 1.90L4.89 1.90L4.87 1.83Q4.87 1.58 5.23 1.38Q5.59 1.18 5.95 1.18L5.95 1.18Q6.40 1.18 6.41 1.51L6.41 1.51L6.45 2.45Q6.58 5.82 6.78 8.13Q6.99 10.43 7.52 12.47L7.52 12.47ZM13.86 4.77Q13.96 4.61 14.34 4.42Q14.73 4.23 15.02 4.23L15.02 4.23Q15.44 4.23 15.39 4.62L15.39 4.62Q15.39 4.66 15.37 4.75Q15.36 4.83 15.34 4.87L15.34 4.87L15.34 4.90Q15.20 5.84 15.03 7.15Q14.85 8.46 14.76 9.20L14.76 9.20L14.39 11.89Q14.35 12.17 13.99 12.36Q13.64 12.56 13.27 12.56L13.27 12.56Q13.05 12.56 12.91 12.46Q12.78 12.36 12.81 12.18L12.81 12.18Q12.96 10.98 13.30 8.57L13.30 8.57L13.16 8.81Q12.80 9.42 12.61 9.70L12.61 9.70Q11.98 10.68 11.28 11.35Q10.57 12.03 9.66 12.25L9.66 12.25Q9.31 12.33 9.03 12.33L9.03 12.33Q7.71 12.33 7.71 10.54L7.71 10.54Q7.71 9.70 7.98 8.63Q8.25 7.56 8.59 6.62Q8.93 5.68 9.18 5.19L9.18 5.19Q9.28 5.00 9.63 4.85Q9.97 4.70 10.29 4.70L10.29 4.70Q10.49 4.70 10.61 4.77Q10.72 4.84 10.72 4.97L10.72 4.97Q10.72 5.03 10.68 5.14L10.68 5.14Q9.74 7.20 9.46 8.88L9.46 8.88L9.39 9.25Q9.28 9.84 9.28 10.15L9.28 10.15Q9.28 10.30 9.30 10.37L9.30 10.37Q9.46 11.09 9.84 11.05L9.84 11.05Q10.00 11.03 10.21 10.78Q10.43 10.53 10.49 10.47L10.49 10.47Q11.17 9.67 11.73 8.73Q12.29 7.78 13.03 6.36L13.03 6.36Q13.41 5.59 13.86 4.77L13.86 4.77ZM20.68 9.49Q20.78 9.39 20.99 9.34Q21.20 9.28 21.41 9.28L21.41 9.28Q21.92 9.28 21.92 9.55L21.92 9.55Q21.92 9.67 21.78 9.83L21.78 9.83Q21.62 10.02 21.48 10.20Q21.34 10.37 21.22 10.51L21.22 10.51Q20.61 11.31 20.12 11.78Q19.63 12.25 18.97 12.46L18.97 12.46Q18.66 12.56 18.31 12.56L18.31 12.56Q17.72 12.56 17.31 12.22Q16.90 11.89 16.83 11.24L16.83 11.24Q16.80 11.06 16.80 10.68L16.80 10.68Q16.80 9.95 16.97 9.20Q17.14 8.44 17.46 7.31L17.46 7.31L17.63 6.71L17.09 6.76Q16.70 6.79 16.03 6.87L16.03 6.87Q15.71 6.92 15.54 6.80Q15.37 6.69 15.37 6.51L15.37 6.51Q15.37 6.30 15.58 6.10Q15.78 5.89 16.10 5.87L16.10 5.87L17.91 5.66Q18.52 3.39 19.29 1.20L19.29 1.20Q19.36 1.01 19.68 0.86Q19.99 0.71 20.29 0.71L20.29 0.71Q20.47 0.71 20.59 0.78Q20.71 0.85 20.71 0.99L20.71 0.99Q20.71 1.04 20.68 1.15L20.68 1.15Q19.87 3.43 19.32 5.50L19.32 5.50Q20.30 5.40 20.62 5.40L20.62 5.40Q21.03 5.40 21.03 5.64L21.03 5.64Q21.03 5.84 20.79 6.07Q20.55 6.30 20.30 6.36L20.30 6.36Q19.46 6.50 19.04 6.55L19.04 6.55Q18.80 7.50 18.62 8.41L18.62 8.41Q18.59 8.53 18.42 9.23Q18.26 9.94 18.26 10.56L18.26 10.56Q18.26 11.35 18.68 11.42L18.68 11.42Q18.94 11.47 19.29 11.12Q19.63 10.78 20.17 10.09L20.17 10.09Q20.51 9.66 20.68 9.49L20.68 9.49ZM27.52 7.71Q27.52 6.23 25.79 5.38L25.79 5.38Q25.35 5.74 24.92 6.34L24.92 6.34Q24.39 7.11 24.04 8.06L24.04 8.06Q23.90 8.44 23.77 9.09Q23.65 9.74 23.65 10.30L23.65 10.30Q23.65 10.88 23.81 11.22Q23.97 11.56 24.33 11.56L24.33 11.56Q24.63 11.56 25.02 11.33L25.02 11.33Q26.10 10.70 26.81 9.76Q27.52 8.82 27.52 7.71L27.52 7.71ZM27.92 5.18Q28.42 5.66 28.69 6.26Q28.97 6.86 28.97 7.53L28.97 7.53Q28.97 8.50 28.41 9.49L28.41 9.49Q28.03 10.16 27.30 10.91Q26.57 11.65 25.68 12.16Q24.79 12.67 23.98 12.67L23.98 12.67Q23.48 12.67 23.03 12.45L23.03 12.45Q22.08 11.93 22.08 10.58L22.08 10.58Q22.08 9.62 22.51 8.46Q22.95 7.31 23.44 6.51L23.44 6.51Q24.63 4.62 25.94 4.13L25.94 4.13Q26.31 3.99 26.73 3.99L26.73 3.99Q27.22 3.99 27.55 4.23Q27.89 4.48 27.94 5.00L27.94 5.00L27.94 5.05Q27.94 5.10 27.92 5.18L27.92 5.18ZM36.89 1.71Q36.99 1.51 37.30 1.38Q37.62 1.25 37.93 1.25L37.93 1.25Q38.36 1.25 38.36 1.50L38.36 1.50Q38.36 1.60 38.30 1.69L38.30 1.69Q37.44 3.35 36.79 5.08Q36.15 6.82 35.32 9.44L35.32 9.44Q34.73 11.31 34.41 12.24L34.41 12.24Q34.34 12.43 34.01 12.61Q33.67 12.80 33.38 12.80L33.38 12.80Q33.03 12.80 32.97 12.50L32.97 12.50Q32.52 10.25 32.44 7.73L32.44 7.73L30.51 12.18Q30.42 12.38 30.07 12.55Q29.71 12.73 29.41 12.73L29.41 12.73Q29.22 12.73 29.11 12.63Q28.99 12.53 29.02 12.33L29.02 12.33Q29.22 10.67 29.58 7.34L29.58 7.34L30.13 2.34Q30.16 2.09 30.51 1.90Q30.86 1.71 31.19 1.71L31.19 1.71Q31.40 1.71 31.51 1.79Q31.63 1.88 31.61 2.04L31.61 2.04Q31.39 4.12 31.00 7.64L31.00 7.64Q31.53 6.44 32.56 4.03L32.56 4.03Q32.65 3.84 33.00 3.67Q33.35 3.50 33.66 3.50L33.66 3.50Q33.85 3.50 33.96 3.60Q34.06 3.70 34.05 3.89L34.05 3.89Q33.89 5.40 33.89 6.82L33.89 6.82Q33.89 7.88 33.98 8.93L33.98 8.93Q34.68 6.73 35.35 5.00Q36.02 3.26 36.89 1.71L36.89 1.71ZM41.79 7.71Q41.79 6.23 40.05 5.38L40.05 5.38Q39.62 5.74 39.19 6.34L39.19 6.34Q38.65 7.11 38.30 8.06L38.30 8.06Q38.16 8.44 38.04 9.09Q37.91 9.74 37.91 10.30L37.91 10.30Q37.91 10.88 38.07 11.22Q38.23 11.56 38.60 11.56L38.60 11.56Q38.89 11.56 39.28 11.33L39.28 11.33Q40.36 10.70 41.08 9.76Q41.79 8.82 41.79 7.71L41.79 7.71ZM42.18 5.18Q42.69 5.66 42.96 6.26Q43.23 6.86 43.23 7.53L43.23 7.53Q43.23 8.50 42.67 9.49L42.67 9.49Q42.29 10.16 41.57 10.91Q40.84 11.65 39.95 12.16Q39.06 12.67 38.25 12.67L38.25 12.67Q37.74 12.67 37.30 12.45L37.30 12.45Q36.34 11.93 36.34 10.58L36.34 10.58Q36.34 9.62 36.78 8.46Q37.21 7.31 37.70 6.51L37.70 6.51Q38.89 4.62 40.21 4.13L40.21 4.13Q40.57 3.99 40.99 3.99L40.99 3.99Q41.48 3.99 41.82 4.23Q42.15 4.48 42.21 5.00L42.21 5.00L42.21 5.05Q42.21 5.10 42.18 5.18L42.18 5.18ZM47.36 3.88Q47.77 3.71 48.10 3.71L48.10 3.71Q48.47 3.71 48.69 3.90Q48.92 4.09 48.92 4.51L48.92 4.51Q48.92 4.91 48.79 5.39Q48.66 5.87 48.44 6.51L48.44 6.51L48.24 7.10Q48.16 7.36 47.81 7.55Q47.46 7.73 47.14 7.73L47.14 7.73Q46.93 7.73 46.82 7.64Q46.72 7.55 46.77 7.36L46.77 7.36Q47.03 6.58 47.28 5.63L47.28 5.63Q47.33 5.19 47.36 5.05L47.36 5.05L47.31 5.11Q46.23 6.03 45.33 7.43L45.33 7.43Q44.93 9.66 44.83 11.90L44.83 11.90Q44.81 12.17 44.47 12.37Q44.13 12.57 43.76 12.57L43.76 12.57Q43.55 12.57 43.41 12.47Q43.27 12.38 43.29 12.18L43.29 12.18Q43.40 10.16 43.72 8.26L43.72 8.26Q43.58 8.16 43.58 8.04L43.58 8.04Q43.58 7.95 43.64 7.85L43.64 7.85L43.85 7.50Q44.16 5.89 44.60 4.27L44.60 4.27Q44.67 4.02 45.05 3.83Q45.42 3.64 45.75 3.64L45.75 3.64Q45.96 3.64 46.07 3.72Q46.19 3.81 46.13 3.98L46.13 3.98Q45.91 4.76 45.85 5.01L45.85 5.01Q46.69 4.17 47.36 3.88L47.36 3.88ZM50.12 1.39Q50.15 1.12 50.49 0.93Q50.83 0.74 51.17 0.74L51.17 0.74Q51.38 0.74 51.49 0.83Q51.60 0.91 51.59 1.09L51.59 1.09Q51.18 4.75 50.75 8.40L50.75 8.40L50.33 12.05Q50.30 12.32 49.95 12.52Q49.60 12.71 49.25 12.71L49.25 12.71Q48.78 12.71 48.82 12.35L48.82 12.35L49.48 6.86Q49.92 3.00 50.12 1.39L50.12 1.39ZM53.42 11.40Q53.69 11.61 54.11 11.61L54.11 11.61Q54.60 11.61 55.36 11.28L55.36 11.28Q55.80 8.69 56.06 6.19L56.06 6.19L56.03 6.19Q55.27 6.19 54.64 6.71Q54.01 7.22 53.60 7.99Q53.19 8.76 53.03 9.52L53.03 9.52Q52.96 9.87 52.96 10.21L52.96 10.21Q52.96 11.03 53.42 11.40L53.42 11.40ZM56.39 1.75Q56.41 1.50 56.74 1.31Q57.08 1.12 57.43 1.12L57.43 1.12Q57.86 1.12 57.85 1.44L57.85 1.44Q57.61 6.06 56.84 10.98L56.84 10.98Q57.06 11.09 57.06 11.27L57.06 11.27Q57.06 11.48 56.73 11.68L56.73 11.68L56.64 12.19Q56.59 12.46 56.25 12.65Q55.90 12.84 55.57 12.84L55.57 12.84Q55.36 12.84 55.23 12.75Q55.10 12.66 55.15 12.47L55.15 12.47Q55.15 12.40 55.16 12.38L55.16 12.38Q54.26 12.66 53.68 12.66L53.68 12.66Q53.03 12.66 52.51 12.38L52.51 12.38Q52.00 12.11 51.76 11.61Q51.52 11.10 51.52 10.47L51.52 10.47Q51.52 10.25 51.58 9.86L51.58 9.86Q51.77 8.72 52.42 7.67Q53.06 6.62 54.04 5.95Q55.02 5.28 56.15 5.24L56.15 5.24Q56.32 3.32 56.39 1.75L56.39 1.75Z"></path></g><!----><!----></svg>